<?xml version="1.0" encoding="UTF-8"?>
<svg version="1.1" xmlns="http://www.w3.org/2000/svg" width="512" height="512">
<path d="M0 0 C6.32650027 4.16973881 8.65235663 10.54096503 11.5625 17.25 C12.31805176 18.97053589 12.31805176 18.97053589 13.08886719 20.72583008 C20.72288084 38.16588685 28.10612557 55.71691405 35.55078125 73.23828125 C41.07652515 86.2425185 46.631556 99.23404642 52.20046997 112.21984863 C53.68422672 115.67986694 55.16724999 119.14019887 56.65014648 122.60058594 C61.35601824 133.57961867 66.06823252 144.55587964 70.7931366 155.5267334 C72.7452497 160.05965285 74.69494717 164.59361011 76.644063 169.12781906 C77.97419327 172.22158116 79.30614717 175.31452866 80.64059448 178.40643311 C82.11395386 181.82032819 83.58282053 185.23612451 85.05078125 188.65234375 C85.70063492 190.1531826 85.70063492 190.1531826 86.36361694 191.68434143 C86.76738556 192.62631882 87.17115417 193.5682962 87.5871582 194.53881836 C88.10811821 195.74772987 88.10811821 195.74772987 88.63960266 196.98106384 C90.16389179 200.86789534 91.42973804 204.85171412 92.75 208.8125 C185.15 208.8125 277.55 208.8125 372.75 208.8125 C374.235 204.3575 374.235 204.3575 375.75 199.8125 C376.44367842 198.04366815 377.1609198 196.28368774 377.9128418 194.53881836 C378.51850227 193.12583717 378.51850227 193.12583717 379.13639832 191.68431091 C379.78624443 190.18348717 379.78624443 190.18348717 380.44921875 188.65234375 C380.91205765 187.57521622 381.37489655 186.49808868 381.85176086 185.38832092 C383.37699891 181.84076564 384.90728547 178.2954112 386.4375 174.75 C387.51840006 172.23928557 388.59811072 169.72806038 389.67773438 167.21679688 C391.63796479 162.65803841 393.59933274 158.0997729 395.56221199 153.54215431 C400.48129046 142.12004163 405.37869939 130.68866576 410.27471924 119.25665283 C411.75468718 115.80155743 413.23536705 112.34676804 414.71630859 108.89208984 C419.34146224 98.10271757 423.96478784 87.31257011 428.58230591 76.51992798 C430.46357688 72.12282394 432.34567959 67.72607604 434.22795296 63.32940102 C435.49844229 60.36157771 436.76833971 57.39350341 438.03735352 54.42504883 C440.80091902 47.96072502 443.57419278 41.50072925 446.35943604 35.04571533 C447.82049516 31.64859093 449.26807389 28.24587059 450.71630859 24.84326172 C451.6892038 22.58145838 452.6626555 20.31989431 453.63671875 18.05859375 C454.07635452 17.01687515 454.5159903 15.97515656 454.96894836 14.90187073 C460.15159567 2.95209176 460.15159567 2.95209176 466.0625 -0.5625 C471.14143339 -1.7436473 475.1541607 -1.77059513 480 0 C483.5677811 2.35149209 485.84221079 4.99692157 487.75 8.8125 C488.6604614 17.05822347 486.9233573 23.27807783 483.5625 30.73046875 C483.11765762 31.76028366 482.67281525 32.79009857 482.2144928 33.85112 C480.74465928 37.24239651 479.24732795 40.62078431 477.75 44 C476.70166029 46.40617848 475.65539356 48.81326107 474.61108398 51.22119141 C472.70593656 55.61064403 470.79402679 59.99702892 468.87311077 64.37960434 C463.94074311 75.63334445 459.11513231 86.93232209 454.28936768 98.2321167 C451.81200402 104.02833063 449.32559993 109.82066281 446.83984375 115.61328125 C442.91348137 124.76553393 438.99028447 133.91913484 435.07022667 143.07408905 C433.45323828 146.85029477 431.8359136 150.62635648 430.21862888 154.4024353 C428.94127757 157.38492118 427.66418807 160.36751874 426.38748169 163.35028076 C419.89148025 178.52621911 413.35016818 193.68155672 406.75 208.8125 C408.01481201 208.79155273 409.27962402 208.77060547 410.58276367 208.74902344 C415.33329681 208.67591682 420.08378159 208.63044638 424.8347168 208.59277344 C426.88004962 208.5728174 428.92532658 208.54564262 430.97045898 208.51074219 C448.27304318 208.22314118 461.92846492 209.24928296 475.4375 221.1875 C482.59846061 229.31615799 488.83615379 238.13740333 488.89717102 249.3575592 C488.90790398 250.71767624 488.90790398 250.71767624 488.91885376 252.10527039 C488.92288712 253.58662224 488.92288712 253.58662224 488.92700195 255.09790039 C488.93685875 256.66698151 488.93685875 256.66698151 488.94691467 258.26776123 C488.96663426 261.73189366 488.97830898 265.1959827 488.98828125 268.66015625 C488.99235678 269.8453076 488.9964323 271.03045895 489.00063133 272.25152397 C489.02148898 278.52762553 489.03579057 284.80370527 489.04516602 291.07983398 C489.05621386 297.54697776 489.09059637 304.01377591 489.13033772 310.48079777 C489.15654828 315.46612669 489.16486195 320.45137392 489.16844749 325.43676567 C489.17330399 327.81965906 489.18489104 330.20254904 489.20348549 332.58537483 C489.22796467 335.93096995 489.22689519 339.2756797 489.2199707 342.62133789 C489.23278076 343.59473618 489.24559082 344.56813446 489.25878906 345.57102966 C489.1682145 357.65600147 484.28482483 367.54940874 476.375 376.5 C467.18544659 384.59555895 457.78702651 389.98030462 445.23046875 389.91015625 C444.20888672 389.90693359 443.18730469 389.90371094 442.13476562 389.90039062 C441.07966797 389.89201172 440.02457031 389.88363281 438.9375 389.875 C437.86306641 389.87048828 436.78863281 389.86597656 435.68164062 389.86132812 C433.03770317 389.84957729 430.39388048 389.83314787 427.75 389.8125 C427.77094727 390.41723145 427.79189453 391.02196289 427.81347656 391.64501953 C427.89708945 394.40900771 427.94880054 397.17272913 428 399.9375 C428.03351563 400.88882812 428.06703125 401.84015625 428.1015625 402.8203125 C428.18540105 408.85668815 427.74957101 412.20670935 423.75 416.8125 C419.71511235 420.35831036 416.18338591 421.11610179 410.80859375 421.02734375 C406.24023683 420.55057026 403.44882274 418.58687114 400.4375 415.25 C394.43185291 406.57517643 397.75 406.36584628 397.75 389.8125 C288.85 389.8125 179.95 389.8125 67.75 389.8125 C67.75 396.7425 67.75 403.6725 67.75 410.8125 C62.32142857 418.95535714 62.32142857 418.95535714 56.75 420.8125 C51.13124276 421.1809431 47.59288621 421.00440228 42.75 417.8125 C39.10401173 413.77235084 37.61987158 411.4138182 37.65234375 406.0234375 C37.65556641 405.08242188 37.65878906 404.14140625 37.66210938 403.171875 C37.67048828 402.18703125 37.67886719 401.2021875 37.6875 400.1875 C37.69201172 399.19492187 37.69652344 398.20234375 37.70117188 397.1796875 C37.71297855 394.7238984 37.729446 392.26822896 37.75 389.8125 C37.12134033 389.83344727 36.49268066 389.85439453 35.8449707 389.87597656 C17.93181135 390.39372634 4.05991402 389.80730773 -9.9375 377.4375 C-17.09846061 369.30884201 -23.33615379 360.48759667 -23.39717102 349.2674408 C-23.40790398 347.90732376 -23.40790398 347.90732376 -23.41885376 346.51972961 C-23.42154266 345.53216171 -23.42423157 344.54459381 -23.42700195 343.52709961 C-23.43357315 342.48104553 -23.44014435 341.43499146 -23.44691467 340.35723877 C-23.46663426 336.89310634 -23.47830898 333.4290173 -23.48828125 329.96484375 C-23.49235678 328.7796924 -23.4964323 327.59454105 -23.50063133 326.37347603 C-23.52148898 320.09737447 -23.53579057 313.82129473 -23.54516602 307.54516602 C-23.55621386 301.07802224 -23.59059637 294.61122409 -23.63033772 288.14420223 C-23.65654828 283.15887331 -23.66486195 278.17362608 -23.66844749 273.18823433 C-23.67330399 270.80534094 -23.68489104 268.42245096 -23.70348549 266.03962517 C-23.72796467 262.69403005 -23.72689519 259.3493203 -23.7199707 256.00366211 C-23.73278076 255.03026382 -23.74559082 254.05686554 -23.75878906 253.05397034 C-23.6682145 240.96899853 -18.78482483 231.07559126 -10.875 222.125 C0.14942729 212.41300453 10.23140974 208.63421589 24.86328125 208.71484375 C25.83283249 208.7162587 26.80238373 208.71767365 27.80131531 208.71913147 C30.88840867 208.72471487 33.97542867 208.73726436 37.0625 208.75 C39.15950416 208.75501714 41.25650946 208.75957968 43.35351562 208.76367188 C48.48570521 208.77467888 53.61784018 208.79193212 58.75 208.8125 C58.51292831 208.26842499 58.27585663 207.72434998 58.03160095 207.16378784 C45.73304026 178.93298006 33.52094568 150.6692016 21.47729492 122.32861328 C20.52266254 120.08234026 19.56799114 117.83608383 18.61328125 115.58984375 C18.13902206 114.47397888 17.66476288 113.35811401 17.1761322 112.20843506 C13.58300657 103.75934722 9.97348113 95.31735787 6.35546875 86.87890625 C6.08867876 86.25664343 5.82188877 85.63438061 5.54701424 84.99326134 C2.25421392 77.3138544 -1.04120694 69.6355732 -4.338974 61.95829773 C-5.26213522 59.80475962 -6.18263961 57.65008048 -7.10035706 55.49421692 C-9.48270825 49.90034053 -11.90651295 44.3301086 -14.39648438 38.78320312 C-14.90826233 37.6238324 -15.42004028 36.46446167 -15.94732666 35.2699585 C-16.91923586 33.06861627 -17.90627435 30.87386288 -18.91156006 28.68756104 C-21.83316424 22.00640442 -23.31845001 16.12724362 -22.25 8.8125 C-17.69705854 -0.29338292 -9.57576679 -3.49883787 0 0 Z M10.5 245.0625 C6.77231877 250.92028479 6.45433452 256.91079477 6.4753418 263.63427734 C6.47023087 264.48891068 6.46511993 265.34354401 6.45985413 266.22407532 C6.44602307 269.03226849 6.44691008 271.84021443 6.44921875 274.6484375 C6.44532811 276.61227509 6.44099268 278.57611184 6.43623352 280.53994751 C6.42878514 284.65035737 6.42905246 288.76068132 6.43432617 292.87109375 C6.44011732 298.12204153 6.42319154 303.37263618 6.3999815 308.62352562 C6.38520407 312.67802973 6.38437794 316.73244959 6.38749123 320.78697586 C6.38697998 322.72214075 6.38177935 324.65731059 6.37167931 326.59244919 C6.35925496 329.30583978 6.36614236 332.01855273 6.37768555 334.73193359 C6.37004181 335.52079453 6.36239807 336.30965546 6.35452271 337.12242126 C6.41013 343.07703236 7.12320225 349.7851806 11.1665144 354.44499779 C15.95127299 358.57712754 19.6577019 358.93803191 25.78661823 358.94392776 C26.51090612 358.9459804 27.23519401 358.94803303 27.98143002 358.95014787 C30.42727816 358.95583723 32.87307033 358.95435824 35.31892395 358.95294189 C37.08265218 358.95552442 38.84637982 358.95853726 40.61010665 358.9619453 C45.47162143 358.97003174 50.33312147 358.97180578 55.19464219 358.97254276 C60.431976 358.97439045 65.6693021 358.98193631 70.90663147 358.98867798 C82.36516789 359.00227322 93.82370082 359.0082878 105.28224397 359.01268864 C112.43312991 359.01544889 119.58401449 359.01968583 126.73489952 359.02419281 C146.52270962 359.03638674 166.31051863 359.046686 186.09833241 359.0500679 C187.36535529 359.05028747 188.63237817 359.05050703 189.93779568 359.05073325 C191.20789636 359.05095153 192.47799705 359.05116981 193.78658563 359.0513947 C196.3604093 359.05183817 198.93423297 359.05228473 201.50805664 359.05273438 C202.7847694 359.0529558 204.06148215 359.05317723 205.37688317 359.05340537 C226.0720065 359.0573548 246.76709464 359.0748127 267.46220437 359.0980939 C288.69526273 359.12178804 309.92830343 359.13426886 331.16137522 359.13543582 C343.08875645 359.13635364 355.01609184 359.14213289 366.94346046 359.16025543 C377.09839116 359.17563025 387.25326185 359.18079237 397.40820197 359.17251733 C402.5916684 359.16860161 407.7750139 359.16958531 412.95846558 359.18357468 C417.70136474 359.1962583 422.44405141 359.19516504 427.18695005 359.18298396 C428.90499277 359.18101733 430.62305026 359.1841497 432.34107218 359.19282833 C434.67292722 359.20386424 437.00402479 359.19647323 439.33585835 359.1844368 C441.28024515 359.18533243 441.28024515 359.18533243 443.2639125 359.18624616 C448.2113168 358.65583109 451.49360233 357.06889767 455 353.5625 C458.72768123 347.70471521 459.04566548 341.71420523 459.0246582 334.99072266 C459.02976913 334.13608932 459.03488007 333.28145599 459.04014587 332.40092468 C459.05397693 329.59273151 459.05308992 326.78478557 459.05078125 323.9765625 C459.05467189 322.01272491 459.05900732 320.04888816 459.06376648 318.08505249 C459.07121486 313.97464263 459.07094754 309.86431868 459.06567383 305.75390625 C459.05988268 300.50295847 459.07680846 295.25236382 459.1000185 290.00147438 C459.11479593 285.94697027 459.11562206 281.89255041 459.11250877 277.83802414 C459.11302002 275.90285925 459.11822065 273.96768941 459.12832069 272.03255081 C459.14074504 269.31916022 459.13385764 266.60644727 459.12231445 263.89306641 C459.12995819 263.10420547 459.13760193 262.31534454 459.14547729 261.50257874 C459.08987 255.54796764 458.37679775 248.8398194 454.3334856 244.18000221 C449.54872701 240.04787246 445.8422981 239.68696809 439.71338177 239.68107224 C438.98909388 239.6790196 438.26480599 239.67696697 437.51856998 239.67485213 C435.07272184 239.66916277 432.62692967 239.67064176 430.18107605 239.67205811 C428.41734782 239.66947558 426.65362018 239.66646274 424.88989335 239.6630547 C420.02837857 239.65496826 415.16687853 239.65319422 410.30535781 239.65245724 C405.068024 239.65060955 399.8306979 239.64306369 394.59336853 239.63632202 C383.13483211 239.62272678 371.67629918 239.6167122 360.21775603 239.61231136 C353.06687009 239.60955111 345.91598551 239.60531417 338.76510048 239.60080719 C318.97729038 239.58861326 299.18948137 239.578314 279.40166759 239.5749321 C278.13464471 239.57471253 276.86762183 239.57449297 275.56220432 239.57426675 C274.29210364 239.57404847 273.02200295 239.57383019 271.71341437 239.5736053 C269.1395907 239.57316183 266.56576703 239.57271527 263.99194336 239.57226562 C262.7152306 239.5720442 261.43851785 239.57182277 260.12311683 239.57159463 C239.4279935 239.5676452 218.73290536 239.5501873 198.03779563 239.5269061 C176.80473727 239.50321196 155.57169657 239.49073114 134.33862478 239.48956418 C122.41124355 239.48864636 110.48390816 239.48286711 98.55653954 239.46474457 C88.40160884 239.44936975 78.24673815 239.44420763 68.09179803 239.45248267 C62.9083316 239.45639839 57.7249861 239.45541469 52.54153442 239.44142532 C47.79863526 239.4287417 43.05594859 239.42983496 38.31304995 239.44201604 C36.59500723 239.44398267 34.87694974 239.4408503 33.15892782 239.43217167 C30.82707278 239.42113576 28.49597521 239.42852677 26.16414165 239.4405632 C24.86788378 239.43996611 23.57162591 239.43936903 22.2360875 239.43875384 C17.2886832 239.96916891 14.00639767 241.55610233 10.5 245.0625 Z " fill="#22c55e" transform="translate(23.25,76.1875)"/>
<path d="M0 0 C1.21260498 0.33789551 1.21260498 0.33789551 2.44970703 0.68261719 C33.5669772 9.62674339 81.05372413 31.96066265 98.4375 61.4375 C99.54467559 66.48129992 99.56661514 70.44926382 97.8125 75.25 C95.01558312 79.49359802 92.06248001 81.85885348 87.25 83.4375 C82.30518473 84.40680831 78.48797019 83.1299731 74 81 C71.36562648 79.0701445 69.14564585 76.83981534 66.875 74.5 C51.78383693 59.72299671 34.03221003 48.98569916 15 40 C13.86949219 39.46375 12.73898437 38.9275 11.57421875 38.375 C-33.13898912 18.1988874 -86.40437424 17.70993737 -132.19140625 34.51269531 C-149.9751396 41.34010251 -166.86742604 50.42145744 -182 62 C-182.82113281 62.62648438 -183.64226562 63.25296875 -184.48828125 63.8984375 C-188.12805495 66.74291774 -191.65546328 69.63157429 -194.9765625 72.84375 C-205.93546525 83.43219627 -205.93546525 83.43219627 -213 84 C-218.99662597 83.67973821 -222.87524164 81.22296689 -227 77 C-229.3628252 73.02615761 -229.76172239 68.52938154 -229 64 C-218.87633045 39.85648523 -181.76005558 21.7320025 -159 11 C-157.89527344 10.47664063 -156.79054688 9.95328125 -155.65234375 9.4140625 C-106.74144994 -12.62207321 -51.23248647 -14.29869291 0 0 Z " fill="#22c55e" transform="translate(321,24)"/>
<path d="M0 0 C11.07905385 9.78013029 11.07905385 9.78013029 13.42578125 16.8203125 C13.52526757 21.8941148 12.44881753 26.74812082 9.0546875 30.66015625 C4.7470389 34.36623796 1.29424614 35.1133628 -4.28125 35.3359375 C-10.07407064 34.48375373 -13.8544569 30.98230556 -17.88671875 27.0078125 C-43.90739628 2.33944926 -78.35277826 -8.61398549 -113.734375 -8.20703125 C-146.3572055 -7.3341252 -175.30051222 6.36966419 -199.63671875 27.52734375 C-208.70432491 35.35061809 -208.70432491 35.35061809 -216.453125 35.22265625 C-220.8340983 34.76543892 -223.67010748 32.82604568 -226.76171875 29.8203125 C-229.39451589 25.58903138 -230.77597782 21.87839137 -230.3125 16.84375 C-226.83671427 2.89130517 -207.99309839 -8.50401772 -196.38671875 -15.57421875 C-192.49662347 -17.84832647 -188.52868856 -19.95216104 -184.51171875 -21.9921875 C-183.89619141 -22.30881348 -183.28066406 -22.62543945 -182.64648438 -22.95166016 C-123.41389632 -53.08726221 -50.06819703 -43.02845898 0 0 Z " fill="#22c55e" transform="translate(364.51171875,114.9921875)"/>
<path d="M0 0 C5.82230399 5.16300003 9.67311782 8.88128449 10.3125 16.9375 C10.19249212 20.92026158 9.21924002 23.63287721 7 27 C1.82037364 31.67429696 -1.40494464 32.36250072 -8.25390625 32.2734375 C-12.87184629 31.81361417 -15.35550711 29.54293276 -18.64453125 26.45703125 C-34.29349444 12.05998512 -53.85811757 6.08646923 -74.93212891 6.86376953 C-93.59581748 8.0933254 -108.8676298 17.39871102 -122.78515625 29.1796875 C-126.84509174 32.51642461 -130.10487401 32.3321543 -135.234375 32.28515625 C-140.0473343 31.7889048 -142.71534029 29.46185415 -145.8125 25.9375 C-148.5134783 21.53064067 -148.59618314 17.01139448 -148 12 C-146.5 8.9375 -146.5 8.9375 -144 6 C-143.49855469 5.40832031 -142.99710938 4.81664062 -142.48046875 4.20703125 C-105.93247605 -35.68522222 -39.43545022 -33.02646783 0 0 Z " fill="#22c55e" transform="translate(325,160)"/>
<path d="M0 0 C5.31889511 3.90575693 10.99801529 8.45731698 12.25 15.25 C12.47507437 21.27962385 10.47495912 25.70248589 6.5625 30.1875 C2.51842159 33.1377706 -1.97222687 33.65099842 -6.875 33.25 C-10.69131657 32.01492494 -13.79522882 30.19044586 -16.8125 27.5625 C-20.22892754 25.38840975 -23.87587053 25.13135218 -27.875 25.25 C-31.33088757 26.53748752 -33.75054602 28.15596811 -36.6875 30.375 C-40.77171044 32.77747673 -44.15790065 33.45544858 -48.875 33.25 C-54.09352853 31.71010633 -56.97760005 29.8643777 -59.875 25.25 C-62.06237876 20.56275981 -62.58578292 16.16965683 -60.875 11.25 C-54.99265327 1.96392148 -45.68525319 -3.18615802 -35.33203125 -6.0546875 C-22.96863041 -8.54133761 -10.77364781 -6.67200524 0 0 Z " fill="#22c55e" transform="translate(280.875,201.75)"/>
<path d="M0 0 C3.5677811 2.35149209 5.84221079 4.99692157 7.75 8.8125 C7.8859514 11.80455589 7.96279625 14.77211871 7.98828125 17.765625 C7.996353 18.65860291 8.00442474 19.55158081 8.01274109 20.47161865 C8.0265857 22.36468563 8.03730616 24.25777762 8.04516602 26.15087891 C8.0623498 29.0372701 8.10622842 31.92250722 8.15039062 34.80859375 C8.1605202 36.64842908 8.16903547 38.48827415 8.17578125 40.328125 C8.19328934 41.18770813 8.21079742 42.04729126 8.22883606 42.93292236 C8.20920689 48.3940888 7.37180507 51.47020345 3.75 55.8125 C-0.28488765 59.35831036 -3.81661409 60.11610179 -9.19140625 60.02734375 C-13.75976317 59.55057026 -16.55117726 57.58687114 -19.5625 54.25 C-22.63238701 49.81571876 -22.443509 46.11839042 -22.48828125 40.859375 C-22.496353 39.96639709 -22.50442474 39.07341919 -22.51274109 38.15338135 C-22.5265857 36.26031437 -22.53730616 34.36722238 -22.54516602 32.47412109 C-22.5623498 29.5877299 -22.60622842 26.70249278 -22.65039062 23.81640625 C-22.6605202 21.97657092 -22.66903547 20.13672585 -22.67578125 18.296875 C-22.69328934 17.43729187 -22.71079742 16.57770874 -22.72883606 15.69207764 C-22.70920689 10.2309112 -21.87180507 7.15479655 -18.25 2.8125 C-12.86412785 -1.92053917 -6.58073981 -2.40450109 0 0 Z " fill="#22c55e" transform="translate(443.25,346.1875)"/>
<path d="M0 0 C3.5677811 2.35149209 5.84221079 4.99692157 7.75 8.8125 C7.8859514 11.80455589 7.96279625 14.77211871 7.98828125 17.765625 C7.996353 18.65860291 8.00442474 19.55158081 8.01274109 20.47161865 C8.0265857 22.36468563 8.03730616 24.25777762 8.04516602 26.15087891 C8.0623498 29.0372701 8.10622842 31.92250722 8.15039062 34.80859375 C8.1605202 36.64842908 8.16903547 38.48827415 8.17578125 40.328125 C8.19328934 41.18770813 8.21079742 42.04729126 8.22883606 42.93292236 C8.20920689 48.3940888 7.37180507 51.47020345 3.75 55.8125 C-0.28488765 59.35831036 -3.81661409 60.11610179 -9.19140625 60.02734375 C-13.75976317 59.55057026 -16.55117726 57.58687114 -19.5625 54.25 C-22.63238701 49.81571876 -22.443509 46.11839042 -22.48828125 40.859375 C-22.496353 39.96639709 -22.50442474 39.07341919 -22.51274109 38.15338135 C-22.5265857 36.26031437 -22.53730616 34.36722238 -22.54516602 32.47412109 C-22.5623498 29.5877299 -22.60622842 26.70249278 -22.65039062 23.81640625 C-22.6605202 21.97657092 -22.66903547 20.13672585 -22.67578125 18.296875 C-22.69328934 17.43729187 -22.71079742 16.57770874 -22.72883606 15.69207764 C-22.70920689 10.2309112 -21.87180507 7.15479655 -18.25 2.8125 C-12.86412785 -1.92053917 -6.58073981 -2.40450109 0 0 Z " fill="#22c55e" transform="translate(383.25,346.1875)"/>
<path d="M0 0 C3.5677811 2.35149209 5.84221079 4.99692157 7.75 8.8125 C7.8859514 11.80455589 7.96279625 14.77211871 7.98828125 17.765625 C7.996353 18.65860291 8.00442474 19.55158081 8.01274109 20.47161865 C8.0265857 22.36468563 8.03730616 24.25777762 8.04516602 26.15087891 C8.0623498 29.0372701 8.10622842 31.92250722 8.15039062 34.80859375 C8.1605202 36.64842908 8.16903547 38.48827415 8.17578125 40.328125 C8.19328934 41.18770813 8.21079742 42.04729126 8.22883606 42.93292236 C8.20920689 48.3940888 7.37180507 51.47020345 3.75 55.8125 C-0.28488765 59.35831036 -3.81661409 60.11610179 -9.19140625 60.02734375 C-13.75976317 59.55057026 -16.55117726 57.58687114 -19.5625 54.25 C-22.63238701 49.81571876 -22.443509 46.11839042 -22.48828125 40.859375 C-22.496353 39.96639709 -22.50442474 39.07341919 -22.51274109 38.15338135 C-22.5265857 36.26031437 -22.53730616 34.36722238 -22.54516602 32.47412109 C-22.5623498 29.5877299 -22.60622842 26.70249278 -22.65039062 23.81640625 C-22.6605202 21.97657092 -22.66903547 20.13672585 -22.67578125 18.296875 C-22.69328934 17.43729187 -22.71079742 16.57770874 -22.72883606 15.69207764 C-22.70920689 10.2309112 -21.87180507 7.15479655 -18.25 2.8125 C-12.86412785 -1.92053917 -6.58073981 -2.40450109 0 0 Z " fill="#22c55e" transform="translate(323.25,346.1875)"/>
</svg>
